<svg xmlns="http://www.w3.org/2000/svg" xmlns:xlink="http://www.w3.org/1999/xlink" preserveAspectRatio="xMidYMid" width="269.75" height="37.063" viewBox="0 0 269.75 37.063">
  <defs>
    <style>
      .cls-1 {
        fill: #303030;
        fill-rule: evenodd;
      }
    </style>
  </defs>
  <path d="M261.830,36.563 L261.830,21.281 C261.830,19.672 261.572,18.527 261.056,17.848 C260.541,17.168 259.791,16.828 258.806,16.828 C257.962,16.828 257.204,16.977 256.533,17.273 C255.861,17.570 255.298,17.992 254.845,18.539 L254.845,36.563 L246.947,36.563 L246.947,11.203 L254.377,11.203 L254.681,14.766 C255.509,13.500 256.533,12.512 257.752,11.801 C258.970,11.090 260.330,10.734 261.830,10.734 C264.314,10.734 266.255,11.578 267.654,13.266 C269.052,14.953 269.752,17.633 269.752,21.305 L269.752,36.563 L261.830,36.563 ZM234.321,34.734 C234.110,34.063 233.950,33.360 233.841,32.625 C233.153,33.969 232.305,35.043 231.298,35.848 C230.290,36.652 228.973,37.055 227.348,37.055 C224.692,37.055 222.626,36.371 221.149,35.004 C219.673,33.637 218.934,31.774 218.934,29.414 C218.934,26.899 219.880,24.957 221.770,23.590 C223.661,22.223 226.528,21.539 230.372,21.539 L233.630,21.539 L233.630,19.734 C233.630,18.656 233.372,17.828 232.856,17.250 C232.341,16.672 231.551,16.383 230.489,16.383 C229.567,16.383 228.884,16.598 228.438,17.027 C227.993,17.457 227.770,18.125 227.770,19.031 L220.083,19.008 L220.036,18.867 C219.926,16.555 220.891,14.621 222.930,13.066 C224.969,11.512 227.661,10.734 231.005,10.734 C234.145,10.734 236.688,11.516 238.634,13.078 C240.579,14.641 241.552,16.875 241.552,19.781 L241.552,29.344 C241.552,30.688 241.665,31.938 241.891,33.094 C242.118,34.250 242.458,35.406 242.911,36.563 L235.083,36.539 C234.786,36.008 234.532,35.406 234.321,34.734 ZM233.630,25.758 L230.442,25.758 C229.177,25.758 228.262,26.063 227.700,26.672 C227.137,27.281 226.856,28.055 226.856,28.992 C226.856,29.711 227.102,30.293 227.594,30.738 C228.087,31.184 228.723,31.406 229.505,31.406 C230.473,31.406 231.329,31.180 232.071,30.727 C232.813,30.274 233.333,29.734 233.630,29.109 L233.630,25.758 ZM206.344,14.578 L206.203,14.555 L198.680,36.563 L193.359,36.563 L185.977,14.883 L185.836,14.906 L185.836,36.563 L177.914,36.563 L177.914,2.438 L188.297,2.438 L195.937,26.320 L196.078,26.320 L203.789,2.438 L214.266,2.438 L214.266,36.563 L206.344,36.563 L206.344,14.578 ZM168.944,30.270 C169.311,30.668 169.808,30.867 170.433,30.867 C170.839,30.867 171.163,30.852 171.405,30.820 C171.647,30.789 171.956,30.727 172.331,30.633 L172.870,36.492 C172.073,36.695 171.355,36.840 170.714,36.926 C170.073,37.011 169.315,37.055 168.441,37.055 C165.831,37.055 163.850,36.360 162.499,34.969 C161.147,33.578 160.472,31.375 160.472,28.359 L160.472,16.688 L156.933,16.688 L156.933,11.203 L160.472,11.203 L160.472,4.898 L168.394,4.898 L168.394,11.203 L172.402,11.203 L172.402,16.688 L168.394,16.688 L168.394,28.312 C168.394,29.219 168.577,29.871 168.944,30.270 ZM141.143,29.156 C141.744,30.360 142.826,30.961 144.389,30.961 C145.467,30.961 146.272,30.668 146.803,30.082 C147.334,29.496 147.600,28.649 147.600,27.539 L154.819,27.539 L154.866,27.680 C154.928,30.445 153.971,32.699 151.994,34.441 C150.018,36.184 147.483,37.055 144.389,37.055 C140.530,37.055 137.557,35.863 135.471,33.480 C133.385,31.098 132.342,27.992 132.342,24.164 L132.342,23.625 C132.342,19.813 133.381,16.711 135.459,14.320 C137.537,11.930 140.498,10.734 144.342,10.734 C147.561,10.734 150.135,11.629 152.065,13.418 C153.994,15.207 154.928,17.656 154.866,20.766 L154.819,20.906 L147.600,20.906 C147.600,19.703 147.326,18.723 146.780,17.965 C146.233,17.207 145.420,16.828 144.342,16.828 C142.811,16.828 141.744,17.442 141.143,18.668 C140.541,19.895 140.241,21.547 140.241,23.625 L140.241,24.164 C140.241,26.289 140.541,27.953 141.143,29.156 ZM120.642,32.766 C119.892,34.141 118.919,35.199 117.724,35.941 C116.529,36.683 115.150,37.055 113.587,37.055 C110.962,37.055 108.904,36.133 107.412,34.289 C105.919,32.446 105.173,29.594 105.173,25.734 L105.173,11.203 L113.072,11.203 L113.072,25.781 C113.072,27.766 113.326,29.125 113.834,29.859 C114.341,30.594 115.126,30.961 116.189,30.961 C117.033,30.961 117.775,30.844 118.416,30.609 C119.056,30.375 119.603,30.023 120.056,29.555 L120.056,11.203 L127.978,11.203 L127.978,36.563 L121.603,36.563 L120.642,32.766 ZM92.184,33.469 C91.419,34.625 90.524,35.512 89.501,36.129 C88.477,36.746 87.301,37.055 85.973,37.055 C82.848,37.055 80.426,35.899 78.708,33.586 C76.989,31.274 76.130,28.219 76.130,24.422 L76.130,23.930 C76.130,19.977 76.993,16.789 78.719,14.367 C80.446,11.945 82.880,10.734 86.020,10.734 C87.192,10.734 88.250,11.004 89.196,11.543 C90.141,12.082 90.989,12.852 91.739,13.852 L91.739,0.000 L99.661,0.000 L99.661,36.563 L92.723,36.563 L92.184,33.469 ZM91.739,18.914 C91.333,18.242 90.817,17.727 90.192,17.367 C89.567,17.008 88.848,16.828 88.036,16.828 C86.630,16.828 85.614,17.477 84.989,18.773 C84.364,20.071 84.052,21.789 84.052,23.930 L84.052,24.422 C84.052,26.484 84.352,28.090 84.954,29.238 C85.555,30.387 86.567,30.961 87.989,30.961 C88.817,30.961 89.548,30.809 90.180,30.504 C90.813,30.199 91.333,29.750 91.739,29.156 L91.739,18.914 ZM60.258,37.055 C56.367,37.055 53.344,35.859 51.187,33.469 C49.031,31.078 47.953,27.969 47.953,24.141 L47.953,23.648 C47.953,19.836 49.031,16.731 51.187,14.332 C53.344,11.934 56.351,10.734 60.211,10.734 C64.086,10.734 67.102,11.934 69.258,14.332 C71.414,16.731 72.492,19.836 72.492,23.648 L72.492,24.141 C72.492,27.969 71.414,31.078 69.258,33.469 C67.102,35.859 64.102,37.055 60.258,37.055 ZM64.594,23.648 C64.594,21.586 64.258,19.934 63.586,18.691 C62.914,17.449 61.789,16.828 60.211,16.828 C58.648,16.828 57.535,17.453 56.871,18.703 C56.207,19.953 55.875,21.602 55.875,23.648 L55.875,24.141 C55.875,26.266 56.207,27.934 56.871,29.145 C57.535,30.356 58.664,30.961 60.258,30.961 C61.805,30.961 62.914,30.352 63.586,29.133 C64.258,27.914 64.594,26.250 64.594,24.141 L64.594,23.648 ZM42.792,17.930 C41.886,17.930 41.143,18.098 40.566,18.434 C39.987,18.770 39.558,19.242 39.277,19.852 L39.277,36.563 L31.355,36.563 L31.355,11.203 L38.808,11.203 L39.089,14.930 C39.620,13.602 40.323,12.571 41.198,11.836 C42.073,11.102 43.097,10.734 44.269,10.734 C44.628,10.734 44.948,10.758 45.230,10.805 C45.511,10.852 45.808,10.922 46.120,11.016 L45.370,17.953 L42.792,17.930 ZM13.045,24.867 L7.936,24.867 L7.936,36.563 L0.014,36.563 L0.014,2.438 L13.045,2.438 C17.092,2.438 20.303,3.469 22.678,5.531 C25.053,7.594 26.241,10.305 26.241,13.664 C26.241,17.024 25.053,19.731 22.678,21.785 C20.303,23.840 17.092,24.867 13.045,24.867 ZM16.994,9.984 C16.096,9.016 14.780,8.531 13.045,8.531 L7.936,8.531 L7.936,18.773 L13.045,18.773 C14.764,18.773 16.076,18.301 16.983,17.355 C17.889,16.410 18.342,15.196 18.342,13.711 C18.342,12.196 17.893,10.953 16.994,9.984 Z" class="cls-1"/>
</svg>
